<svg xmlns="http://www.w3.org/2000/svg" xmlns:xlink="http://www.w3.org/1999/xlink" width="2000" zoomAndPan="magnify" viewBox="0 0 1500 1499.999933" height="2000" preserveAspectRatio="xMidYMid meet" version="1.0"><defs><g/><clipPath id="527d492793"><rect x="0" width="922" y="0" height="529"/></clipPath></defs><g transform="matrix(1, 0, 0, 1, 268, 484)"><g clip-path="url(#527d492793)"><g fill="#222222" fill-opacity="1"><g transform="translate(0.768838, 378.499906)"><g><path d="M 89.734375 0 C 75.273438 0 62.597656 -3.222656 51.703125 -9.671875 C 40.804688 -16.117188 32.351562 -24.679688 26.34375 -35.359375 C 20.34375 -46.035156 17.34375 -57.820312 17.34375 -70.71875 L 17.34375 -233.515625 L 73.390625 -233.515625 L 73.390625 -66.71875 C 73.390625 -61.382812 75.28125 -56.710938 79.0625 -52.703125 C 82.84375 -48.703125 87.515625 -46.703125 93.078125 -46.703125 L 154.78125 -46.703125 L 154.78125 0 Z M 89.734375 0 "/></g></g></g><g fill="#222222" fill-opacity="1"><g transform="translate(134.522291, 378.499906)"><g><path d="M 118.765625 4 C 99.410156 4 82.226562 0.109375 67.21875 -7.671875 C 52.207031 -15.453125 40.472656 -26.570312 32.015625 -41.03125 C 23.566406 -55.488281 19.34375 -72.722656 19.34375 -92.734375 L 19.34375 -233.515625 L 74.71875 -233.515625 L 74.71875 -89.734375 C 74.71875 -81.066406 76.5 -73.226562 80.0625 -66.21875 C 83.625 -59.207031 88.738281 -53.644531 95.40625 -49.53125 C 102.082031 -45.425781 109.867188 -43.375 118.765625 -43.375 C 127.878906 -43.375 135.71875 -45.425781 142.28125 -49.53125 C 148.84375 -53.644531 153.898438 -59.207031 157.453125 -66.21875 C 161.015625 -73.226562 162.796875 -81.066406 162.796875 -89.734375 L 162.796875 -233.515625 L 218.171875 -233.515625 L 218.171875 -92.734375 C 218.171875 -72.722656 213.890625 -55.488281 205.328125 -41.03125 C 196.765625 -26.570312 185.03125 -15.453125 170.125 -7.671875 C 155.226562 0.109375 138.109375 4 118.765625 4 Z M 118.765625 4 "/></g></g></g><g fill="#222222" fill-opacity="1"><g transform="translate(344.327951, 378.499906)"><g><path d="M 133.765625 0 C 114.640625 0 97.40625 -2.945312 82.0625 -8.84375 C 66.71875 -14.738281 53.707031 -23.019531 43.03125 -33.6875 C 32.351562 -44.363281 24.125 -56.765625 18.34375 -70.890625 C 12.5625 -85.015625 9.671875 -100.304688 9.671875 -116.765625 C 9.671875 -133.210938 12.5625 -148.5 18.34375 -162.625 C 24.125 -176.75 32.40625 -189.144531 43.1875 -199.8125 C 53.976562 -210.488281 66.988281 -218.773438 82.21875 -224.671875 C 97.457031 -230.566406 114.640625 -233.515625 133.765625 -233.515625 L 169.796875 -233.515625 L 169.796875 -186.8125 L 135.109375 -186.8125 C 124.648438 -186.8125 115.140625 -185.03125 106.578125 -181.46875 C 98.015625 -177.914062 90.675781 -172.96875 84.5625 -166.625 C 78.445312 -160.289062 73.773438 -152.894531 70.546875 -144.4375 C 67.328125 -135.988281 65.71875 -126.765625 65.71875 -116.765625 C 65.71875 -106.753906 67.328125 -97.519531 70.546875 -89.0625 C 73.773438 -80.613281 78.445312 -73.21875 84.5625 -66.875 C 90.675781 -60.539062 98.015625 -55.59375 106.578125 -52.03125 C 115.140625 -48.476562 124.648438 -46.703125 135.109375 -46.703125 L 169.796875 -46.703125 L 169.796875 0 Z M 133.765625 0 "/></g></g></g><g fill="#222222" fill-opacity="1"><g transform="translate(498.095148, 378.499906)"><g><path d="M 0 0 L 75.71875 -206.5 C 79.5 -216.726562 85.726562 -224.453125 94.40625 -229.671875 C 103.082031 -234.898438 112.867188 -237.515625 123.765625 -237.515625 C 134.660156 -237.515625 144.441406 -235.007812 153.109375 -230 C 161.785156 -225 168.015625 -217.273438 171.796875 -206.828125 L 247.859375 0 L 187.484375 0 L 172.796875 -45.03125 L 73.71875 -45.03125 L 58.375 0 Z M 88.0625 -91.40625 L 158.453125 -91.40625 L 128.765625 -184.484375 C 128.316406 -185.816406 127.703125 -186.757812 126.921875 -187.3125 C 126.148438 -187.863281 125.207031 -188.140625 124.09375 -188.140625 C 122.976562 -188.140625 122.03125 -187.804688 121.25 -187.140625 C 120.476562 -186.472656 119.984375 -185.585938 119.765625 -184.484375 Z M 88.0625 -91.40625 "/></g></g></g><g fill="#222222" fill-opacity="1"><g transform="translate(718.574804, 378.499906)"><g><path d="M 21.6875 0 L 21.6875 -46.703125 L 121.421875 -46.703125 C 125.867188 -46.703125 129.875 -47.8125 133.4375 -50.03125 C 137 -52.257812 139.832031 -55.148438 141.9375 -58.703125 C 144.050781 -62.265625 145.109375 -66.160156 145.109375 -70.390625 C 145.109375 -74.835938 144.050781 -78.835938 141.9375 -82.390625 C 139.832031 -85.953125 137 -88.84375 133.4375 -91.0625 C 129.875 -93.289062 125.867188 -94.40625 121.421875 -94.40625 L 85.40625 -94.40625 C 71.832031 -94.40625 59.484375 -97.070312 48.359375 -102.40625 C 37.242188 -107.75 28.40625 -115.585938 21.84375 -125.921875 C 15.289062 -136.265625 12.015625 -148.664062 12.015625 -163.125 C 12.015625 -177.363281 15.125 -189.707031 21.34375 -200.15625 C 27.570312 -210.601562 36.023438 -218.773438 46.703125 -224.671875 C 57.378906 -230.566406 69.164062 -233.515625 82.0625 -233.515625 L 185.140625 -233.515625 L 185.140625 -186.8125 L 88.40625 -186.8125 C 84.394531 -186.8125 80.722656 -185.8125 77.390625 -183.8125 C 74.054688 -181.8125 71.5 -179.140625 69.71875 -175.796875 C 67.9375 -172.460938 67.046875 -168.796875 67.046875 -164.796875 C 67.046875 -160.796875 67.9375 -157.179688 69.71875 -153.953125 C 71.5 -150.722656 74.054688 -148.109375 77.390625 -146.109375 C 80.722656 -144.109375 84.394531 -143.109375 88.40625 -143.109375 L 126.09375 -143.109375 C 141 -143.109375 153.953125 -140.269531 164.953125 -134.59375 C 175.960938 -128.925781 184.523438 -121.03125 190.640625 -110.90625 C 196.765625 -100.789062 199.828125 -88.953125 199.828125 -75.390625 C 199.828125 -59.378906 196.65625 -45.757812 190.3125 -34.53125 C 183.976562 -23.300781 175.472656 -14.738281 164.796875 -8.84375 C 154.117188 -2.945312 142.332031 0 129.4375 0 Z M 21.6875 0 "/></g></g></g></g></g></svg>